<?xml version="1.0" encoding="UTF-8" standalone="no"?>
<!-- Created with Inkscape (http://www.inkscape.org/) -->

<svg
   width="9.6537809mm"
   height="10.795413mm"
   viewBox="0 0 9.6537809 10.795413"
   version="1.1"
   id="svg1"
   xml:space="preserve"
   inkscape:version="1.4 (86a8ad7, 2024-10-11)"
   sodipodi:docname="mochicakecode knife.svg"
   inkscape:export-filename="mochicakecode knife.png"
   inkscape:export-xdpi="96"
   inkscape:export-ydpi="96"
   xmlns:inkscape="http://www.inkscape.org/namespaces/inkscape"
   xmlns:sodipodi="http://sodipodi.sourceforge.net/DTD/sodipodi-0.dtd"
   xmlns="http://www.w3.org/2000/svg"
   xmlns:svg="http://www.w3.org/2000/svg"><sodipodi:namedview
     id="namedview1"
     pagecolor="#505050"
     bordercolor="#eeeeee"
     borderopacity="1"
     inkscape:showpageshadow="0"
     inkscape:pageopacity="0"
     inkscape:pagecheckerboard="0"
     inkscape:deskcolor="#505050"
     inkscape:document-units="mm"
     inkscape:zoom="2.8756734"
     inkscape:cx="-53.031057"
     inkscape:cy="-5.0422972"
     inkscape:window-width="1920"
     inkscape:window-height="1009"
     inkscape:window-x="1912"
     inkscape:window-y="-8"
     inkscape:window-maximized="1"
     inkscape:current-layer="svg1" /><defs
     id="defs1"><rect
       x="194.737"
       y="318.53409"
       width="396.42889"
       height="90.413605"
       id="rect1" /></defs><g
     inkscape:label="Layer 1"
     inkscape:groupmode="layer"
     id="layer1"
     transform="translate(-85.055609,-84.212615)"><text
       xml:space="preserve"
       transform="scale(0.26458333)"
       id="text1"
       style="font-weight:bold;font-size:74.6667px;line-height:0.6;font-family:Constantia;-inkscape-font-specification:'Constantia, Bold';text-align:end;letter-spacing:0.05px;writing-mode:lr-tb;direction:ltr;white-space:pre;shape-inside:url(#rect1);display:inline;fill:#fac9d1;stroke:#000000;stroke-width:3.60567;paint-order:markers fill stroke" /></g><g
     style="fill:#000000"
     id="g2"
     transform="matrix(0.04737447,0,0,0.0481965,-1.2367209,-0.67071602)"><path
       d="m 212.87125,38.18125 -108.915,106.295 23.30188,23.30188 c 0.15234,0.13866 0.30049,0.2851 0.44437,0.43875 l 0.0763,0.0819 18.82625,18.825 A 225.51045,225.51045 0 0 0 184.73625,144.02 c 23.23145,-34.47071 32.66523,-69.99988 28.135,-105.83875 z"
       style="fill:#ffffff;fill-opacity:1"
       id="path6" /><path
       d="m 216.15062,14.153125 a 8,8 0 0 0 -3.65499,2.038125 L 34.3525,190.04875 a 28.05536,28.05536 0 0 0 -0.06938,39.66688 28.03445,28.03445 0 0 0 39.5025,0.0975 l 47.90312,-44.97751 18.7375,18.73813 a 8.00114,8.00114 0 0 0 10.45687,0.74312 c 1.02344,-0.76854 25.31922,-19.16863 46.82313,-50.91374 21.30566,-31.45114 32.174,-64.90723 32.175,-98.32813 a 155.06019,155.06019 0 0 0 -4.00313,-34.956875 8,8 0 0 0 -9.7275,-5.965 z m -3.27937,24.028125 c 4.53023,35.83887 -4.90355,71.36804 -28.135,105.83875 A 225.51045,225.51045 0 0 1 146.605,187.12375 l -18.82625,-18.825 -0.0763,-0.0819 c -0.14388,-0.15365 -0.29203,-0.30009 -0.44437,-0.43875 L 103.95625,144.47625 Z M 92.505,155.65187 110.36938,173.51625 62.75,218.2275 c -0.06152,0.0576 -0.122025,0.11477 -0.180625,0.17438 a 12.00079,12.00079 0 1 1 -16.97125,-16.97126 z"
       id="path5" /><path
       d="m 92.505,155.65187 -46.906875,45.77875 a 12.00079,12.00079 0 1 0 16.97125,16.97126 c 0.0586,-0.0596 0.119105,-0.11677 0.180625,-0.17438 l 47.61938,-44.71125 z"
       style="fill:#fac9d1;fill-opacity:1"
       id="path4" /></g></svg>
